<svg id="Layer_1" data-name="Layer 1" xmlns="http://www.w3.org/2000/svg" viewBox="0 0 398.4732 543.02266"><defs><style>.cls-1,.cls-2{fill:none;stroke:#fcfcfc;stroke-width:2.79078px;}.cls-1{stroke-linecap:round;stroke-linejoin:round;}.cls-2{stroke-miterlimit:10;}</style></defs><title>child</title><g id="lIDQP3.tif"><path class="cls-1" d="M379.20818,88.66057c1.52859,10.33765,5.26723,27.421,14.88416,38.14068,1.44638,1.6122,5.40953,5.73765,10.23287,10.23287,5.18865,4.83566,9.75195,8.58852,13.02364,11.16312l.00023.00048c.05508.12747,11.72932,27.21787,4.52014,56.52562-.37065,1.5067-.79932,3.01048-.79932,3.01057-6.82138,24.539-17.036,24.2817-19.53547,43.72224-2.413,18.76782,5.52955,35.16911,12.09338,45.58276,5.78869,10.6562,12.17708,17.64042,9.30261,23.25651-3.29,6.42779-14.69237,3.20594-18.60521,11.16312-1.65362,3.36288-2.53653,9.87562-.93026,15.81443.72676,2.68722,1.608,3.94361.93026,5.58156-1.85223,4.47665-11.96109,3.61975-12.09339,5.58156-.08869,1.31522,4.46893,1.49941,7.44209,5.58157.51.70019,2.17643,2.98814,1.86052,5.58156-.36906,3.02993-3.21276,4.577-5.58157,6.51182-8.75855,7.1541-10.689,19.33493-11.16312,22.32625-.08312.52441-.36543,3.76056-.93026,10.23287-.69883,8.009-.66885,8.42707-.93026,9.3026-2.25661,7.55564-14.61515,10.2826-18.60521,11.16313-32.55491,7.1843-73.38939-32.64315-100.46812-19.53547-12.29791,5.95289-16.55187,19.68173-17.67495,23.25651-7.74063,24.639,11.6035,47.66381,13.02364,49.3038,8.404,9.70528,12.70875,7.98761,35.3499,24.18677,16.2799,11.64779,29.57812,21.43278,27.90781,26.04729-3.87718,10.71094-81.42652-26.23466-168.37713-8.37234A239.30007,239.30007,0,0,0,83.38536,551c11.20963-11.837,34.38818-39.69249,41.86172-81.86292a155.876,155.876,0,0,0,0-53.9551" transform="translate(-27.14126 -9.37273)"/><path class="cls-1" d="M338.27672,252.38641a39.95778,39.95778,0,0,0,15.81443,9.3026,40.929,40.929,0,0,0,26.04729-.93026" transform="translate(-27.14126 -9.37273)"/></g><path class="cls-2" d="M69.43146,418.903c24.85659-15.69014,61.62123-33.1026,95.81682-21.396,34.07028,11.66369,52.42282,47.72553,61.39719,42.792,7.11345-3.91051-1.17691-28.44772-4.6513-48.37354-5.69336-32.65166-5.08668-78.3113,20.46573-137.67854a385.05714,385.05714,0,0,0,58.6064-42.792c35.90127-31.80935,78.64425-69.68062,73.9557-113.9569-2.1929-20.70866-13.60085-35.32389-19.53546-41.86172-38.28887-42.181-107.6664-52.276-161.86532-40.0012C104.28693,35.86739,28.98216,123.03479,35.477,188.66357c2.49911,25.253,5.99622,35.3541,5.58157,83.72344A477.8236,477.8236,0,0,1,28.5,377.0413" transform="translate(-27.14126 -9.37273)"/></svg>