<svg id="Layer_1" data-name="Layer 1" xmlns="http://www.w3.org/2000/svg" viewBox="0 0 487.19424 609.51753"><defs><style>.cls-1,.cls-2,.cls-3,.cls-4{fill:none;stroke-miterlimit:10;}.cls-1,.cls-2{stroke:#f9f7f7;}.cls-1,.cls-2,.cls-4{stroke-width:3px;}.cls-2{stroke-linecap:round;}.cls-3{stroke:#fff;stroke-width:2px;}.cls-4{stroke:#f9f9f9;}</style></defs><title>woman</title><path class="cls-1" d="M14,186c-4.62555,5.656,1.42694,21.2666,13.5,52.5C34.40985,256.376,39.32413,263.45312,43,268c8.46344,10.46875,18.79166,17.95532,23,21,13.39575,9.69189,16.35156,9.87671,18.89407,11.90967A19.08751,19.08751,0,0,1,86.5,302.5c8.49377,9.62207,4,34,4,34a162.68963,162.68963,0,0,1-4,21c-4.07816,15.73291-8.18756,21.91626-5,26,3.60971,4.62476,13.86139,3.07739,21,2,10.55392-1.59277,12.47644-4.76538,17-3,6.48993,2.53271,11.36725,12.46118,10,20a97.56192,97.56192,0,0,0-1.82935,10.50854c-.40264,3.64454-.38964,5.72632.82935,7.49146.40253.58276,1.71411,1.99951,5,3,13.35712,4.06665,27.9104-5.74683,29-4,1.01788,1.63184-12.85681,8.312-12,15,.93506,7.29858,18.43927,6.99927,33,21,3.89813,3.74829,8.20044,8.66577,8.20056,8.666,1.3548,3.84619,4.13532,9.88012,9.79944,12.334,20.0058,8.667,44.1452-38.89893,96-56,12.20618-4.02539,46.77271-15.425,74,0,34.59869,19.60132,18.92078,60.74927,58,109,30.87964,38.12671,69.77429,48.37109,67,55-3.78949,9.05469-67.93121-30.18848-142-15-62.30981,12.7771-98.85419,57.35059-107,49-6.40344-6.56445,18.96466-31.25415,39-82,6.05255-15.33008,21.74188-58.679,22-111,.3042-61.6748-21.18311-64.93384-20.036-117.74756C290.01562,236.31177,330.43188,191.65674,319.5,183.5c-11.09558-8.27881-40.728,47.60718-98,61C126.5705,266.69873,29.74976,166.74146,14,186Z" transform="translate(-10.94618 -11.51679)"/><path class="cls-2" d="M108.51263,302.48389a32.62693,32.62693,0,0,0,22.05768-1.20752c12.41944-5.37256,16.75385-16.7461,17.4718-18.72779" transform="translate(-10.94618 -11.51679)"/><path class="cls-3" d="M113,320a17.02012,17.02012,0,0,0,3-6c1.41949-5.366-.41473-9.88135,0-10,.70068-.20044,5.43475,12.83179,5,13-.43253.16748-6.13068-12.33936-5-13,1.22192-.71411,10.5304,12.34131,11,12,.32123-.2334-4.72559-5.83765-3-9,.85266-1.5625,3.1792-2.19971,5-2,5.42462.59521,9.11511,8.92163,9,9-.11768.08008-6.69543-6.76636-5-11a5.2698,5.2698,0,0,1,5-3c4.17853.31616,6.83112,7.10156,7,7,.19574-.11768-4.877-8.32593-4-9,.1626-.125.46185.06128,1.47711.62671,2.16467,1.20557,3.891,2.07837,4.52289,2.37329,2.28815,1.06836,4.84564,1.38818,5,1,.24768-.623-6.09216-2.06812-7-6-.644-2.78906,1.61328-6.10278,3-6,1.3902.103,1.22089,3.58838,4,5,1.51086.76733,3.59216.769,4,0,.39215-.7395-.56238-2.53223-6-7" transform="translate(-10.94618 -11.51679)"/><path class="cls-4" d="M20,167C24.37421,151.853,50.86066,65.3042,133.5,28.5,227.35376-13.29883,334.60187,35.35474,391,105c58.56561,72.32178,68.75415,175.25293,26.5,263.5" transform="translate(-10.94618 -11.51679)"/></svg>